<svg width="49" height="49" viewBox="0 0 49 49" fill="none" xmlns="http://www.w3.org/2000/svg">
<path fill-rule="evenodd" clip-rule="evenodd" d="M0 24.5C0 10.969 10.969 0 24.5 0C38.031 0 49 10.969 49 24.5C49 38.031 38.031 49 24.5 49C10.969 49 0 38.031 0 24.5ZM2 24.5C2 36.906 12.093 47 24.5 47C36.906 47 47 36.906 47 24.5C47 12.093 36.906 2 24.5 2C12.093 2 2 12.093 2 24.5Z" fill="#323232"/>
<path fill-rule="evenodd" clip-rule="evenodd" d="M35.2441 9.86C36.6911 14.355 35.6711 17.631 34.8111 19.342C36.5551 19.562 38.7651 20.119 39.5661 21.529C39.9541 22.211 39.9461 22.993 39.5421 23.73C39.0281 24.669 38.1441 24.975 37.2081 24.975C36.3941 24.975 35.5451 24.743 34.8661 24.495C34.8724 25.0347 34.8272 25.5739 34.7311 26.105C34.4431 27.602 33.5981 29.743 32.9811 31.306C32.7921 31.783 32.5861 32.307 32.4721 32.626C32.7091 33.24 33.1451 34.437 33.2391 35.11C33.3511 35.911 33.1251 37.258 32.1181 38.416C30.6751 40.075 28.1111 40.916 24.4991 40.916C20.8861 40.916 18.3231 40.075 16.8801 38.416C15.8731 37.257 15.6471 35.911 15.7591 35.11C15.8531 34.438 16.2901 33.24 16.5251 32.626C16.4254 32.3436 16.2517 31.9016 16.083 31.4724L16.0161 31.302C15.3991 29.741 14.5561 27.601 14.2681 26.105C14.1651 25.573 14.1351 25.033 14.1391 24.493C13.4581 24.742 12.6061 24.975 11.7901 24.975C10.8551 24.975 9.97009 24.669 9.45609 23.73C9.05209 22.993 9.04409 22.211 9.43209 21.529C10.2351 20.118 12.4451 19.561 14.1891 19.341C13.3291 17.63 12.3081 14.353 13.7561 9.859C13.5323 9.46025 13.6075 8.96053 13.9387 8.6453C14.2699 8.33006 14.7728 8.27962 15.16 8.52277C15.5472 8.76593 15.7202 9.24075 15.5801 9.676C16.8551 11.944 19.6241 15.604 21.6281 15.771C21.6422 15.7721 21.6545 15.777 21.6669 15.7819C21.6773 15.786 21.6877 15.7902 21.6991 15.792C23.1891 15.509 24.3971 15.5 24.5001 15.5C25.4366 15.5181 26.3697 15.6171 27.2891 15.796C27.302 15.7938 27.314 15.7892 27.3259 15.7846C27.3407 15.7788 27.3555 15.7731 27.3721 15.772C29.3811 15.605 32.1481 11.946 33.4191 9.678C33.6133 9.3305 33.9951 9.13129 34.3913 9.17079C34.7874 9.2103 35.1223 9.48099 35.2441 9.86ZM32.8271 18.82C33.3811 17.865 34.2861 15.768 33.8581 12.708C32.9391 14.017 31.6211 15.639 30.1381 16.69C30.8301 17.014 31.4851 17.422 32.0291 17.948C32.3122 18.2225 32.5787 18.5137 32.8271 18.82ZM15.1421 12.71C16.0581 14.014 17.3711 15.629 18.8481 16.68C18.1471 17.009 17.4891 17.424 16.9561 17.963C16.6801 18.242 16.4231 18.533 16.1851 18.835C15.6361 17.892 14.7171 15.781 15.1421 12.71ZM11.1701 22.52C11.1471 22.56 11.1211 22.607 11.2101 22.77C11.4791 23.256 13.2121 22.838 14.4771 22.165C14.5621 21.869 14.6631 21.577 14.7791 21.287C12.5571 21.514 11.3931 22.129 11.1701 22.52ZM32.7681 25.729C32.5166 27.0393 31.7134 29.0745 31.1258 30.5637L31.1221 30.573C30.7241 31.583 30.5131 32.125 30.4391 32.45L30.3731 32.752L30.4871 33.039C30.7701 33.749 31.1981 34.947 31.2591 35.39V35.39C31.2602 35.4004 31.3545 36.2487 30.6101 37.106C29.8901 37.932 28.2471 38.918 24.5001 38.918C20.7531 38.918 19.1091 37.932 18.3901 37.106C17.6446 36.2496 17.739 35.4002 17.7401 35.39L17.7401 35.39C17.8021 34.949 18.2291 33.749 18.5121 33.038L18.6261 32.752L18.5601 32.45C18.4881 32.124 18.2761 31.581 17.8771 30.569L17.8693 30.5493C17.283 29.0621 16.484 27.0352 16.2321 25.728C15.8101 23.53 16.6111 21.153 18.3771 19.37C19.8901 17.842 23.3101 17.502 24.5001 17.499C25.6661 17.499 29.0391 17.838 30.6391 19.385C32.7201 21.399 33.1041 23.982 32.7681 25.729ZM34.5511 22.178C35.8151 22.84 37.5261 23.249 37.7891 22.77C37.8791 22.606 37.8531 22.56 37.8291 22.519C37.6081 22.13 36.4521 21.52 34.2541 21.29C34.3677 21.5809 34.4668 21.8773 34.5511 22.178Z" fill="#323232"/>
</svg>
