<svg width="49" height="49" viewBox="0 0 49 49" fill="none" xmlns="http://www.w3.org/2000/svg">
<path fill-rule="evenodd" clip-rule="evenodd" d="M0 24.5C0 10.969 10.969 0 24.5 0C38.031 0 49 10.969 49 24.5C49 38.031 38.031 49 24.5 49C10.969 49 0 38.031 0 24.5ZM2 24.5C2 36.906 12.093 47 24.5 47C36.906 47 47 36.906 47 24.5C47 12.093 36.906 2 24.5 2C12.093 2 2 12.093 2 24.5Z" fill="#323232"/>
<path fill-rule="evenodd" clip-rule="evenodd" d="M34.807 26.756C34.357 17.263 25.61 8.06304 25.221 7.65904C25.213 7.6511 25.2042 7.64512 25.1955 7.63917C25.1877 7.63389 25.18 7.62863 25.173 7.62204C25.1361 7.58898 25.0966 7.55889 25.055 7.53204C25.0138 7.50294 24.9703 7.47719 24.925 7.45504C24.917 7.45104 24.9097 7.44625 24.9025 7.44146L24.9025 7.44145C24.8935 7.43546 24.8845 7.42948 24.874 7.42504C24.8592 7.419 24.8438 7.41628 24.8284 7.41357C24.8158 7.41133 24.8032 7.4091 24.791 7.40504C24.6951 7.37381 24.5947 7.35893 24.494 7.36104C24.449 7.36104 24.405 7.36304 24.36 7.36904C24.3063 7.3772 24.2535 7.38991 24.202 7.40704C24.1909 7.41057 24.1794 7.41255 24.168 7.41451C24.1537 7.41699 24.1393 7.41946 24.126 7.42504C24.1165 7.42871 24.1084 7.43432 24.1003 7.43997L24.1003 7.43997C24.0929 7.44508 24.0855 7.45024 24.077 7.45404C24.0304 7.47649 23.9859 7.50292 23.944 7.53304C23.9023 7.56023 23.8628 7.59066 23.826 7.62404C23.8199 7.62928 23.8134 7.63372 23.8069 7.63812C23.7972 7.64464 23.7877 7.65109 23.78 7.66004C23.391 8.06404 14.64 17.268 14.193 26.765L14.1913 26.7787C14.1838 26.841 14.1764 26.9027 14.182 26.967C14.169 27.33 14.165 27.694 14.179 28.058C14.548 38.314 24.157 40.878 24.254 40.903C24.416 40.9446 24.5859 40.9446 24.748 40.903C24.845 40.879 34.454 38.314 34.822 28.058C34.835 27.695 34.831 27.331 34.819 26.969C34.8242 26.9048 34.8171 26.8436 34.8099 26.7814L34.807 26.756ZM16.783 23.25C19.002 25.308 22.151 26.771 23.5 27.341V31.893C21.052 30.697 17.281 28.552 16.198 26.665C16.2766 25.5098 16.4726 24.3656 16.783 23.25ZM23.5 21.213C22.409 20.8 20.32 19.842 18.807 18.154C18.3115 19.1141 17.8699 20.101 17.484 21.11C19.076 22.937 21.846 24.393 23.5 25.153V21.213ZM31.518 21.108C29.928 22.932 27.156 24.391 25.5 25.152V21.213C26.592 20.8 28.683 19.841 30.195 18.151C30.684 19.1 31.13 20.091 31.518 21.108ZM25.5 11.039V19.047C26.615 18.544 28.198 17.642 29.151 16.268C28.0585 14.4413 26.8385 12.694 25.5 11.039ZM25.5 31.893V27.341C26.85 26.772 29.999 25.307 32.219 23.249C32.524 24.377 32.734 25.522 32.803 26.666C31.72 28.549 27.948 30.695 25.5 31.893ZM19.851 16.271C20.806 17.651 22.387 18.55 23.5 19.05V11.042C22.1625 12.6973 20.9432 14.4446 19.851 16.271ZM16.383 29.825C18.711 31.808 22.073 33.454 23.5 34.106V38.509C21.408 37.605 17.338 35.178 16.383 29.825ZM25.5 34.106V38.521C27.601 37.635 31.671 35.233 32.621 29.822C30.292 31.806 26.928 33.453 25.5 34.106Z" fill="#323232"/>
</svg>
