<svg width="49" height="49" viewBox="0 0 49 49" fill="none" xmlns="http://www.w3.org/2000/svg">
<path fill-rule="evenodd" clip-rule="evenodd" d="M0 24.5C0 10.969 10.969 0 24.5 0C38.031 0 49 10.969 49 24.5C49 38.031 38.031 49 24.5 49C10.969 49 0 38.031 0 24.5ZM2 24.5C2 36.906 12.093 47 24.5 47C36.906 47 47 36.906 47 24.5C47 12.093 36.906 2 24.5 2C12.093 2 2 12.093 2 24.5Z" fill="#323232"/>
<path fill-rule="evenodd" clip-rule="evenodd" d="M24.5 7.625C20.145 7.625 16.56 10.903 16.064 15.125H16V32.042H33V15.125H32.937C32.44 10.903 28.855 7.625 24.5 7.625ZM18 30.042V20.785C18.275 21.122 18.705 21.416 19.542 21.416C20.834 21.416 21.667 20.703 21.667 19.791V18.916C21.667 18.6109 21.8298 18.329 22.094 18.1764C22.3582 18.0239 22.6838 18.0239 22.948 18.1764C23.2122 18.329 23.375 18.6109 23.375 18.916C23.375 18.9206 23.3737 18.925 23.3724 18.9292C23.3712 18.9332 23.37 18.9371 23.37 18.941C23.37 18.9445 23.3713 18.947 23.3725 18.9495C23.3737 18.952 23.375 18.9545 23.375 18.958V22.25C23.375 22.25 23.344 24.083 25.5 24.083C27.609 24.083 27.625 22.333 27.625 22.333V20.083H27.626L27.625 20.078C27.625 19.3357 28.2267 18.734 28.969 18.734C29.7113 18.734 30.313 19.3357 30.313 20.078C30.313 20.109 30.334 20.166 30.334 20.166C30.334 20.166 30.368 20.775 31.001 21.06V30.042H31H18ZM24.5 41.625C23.6716 41.625 23 40.9534 23 40.125V33H26V40.125C26 40.9534 25.3284 41.625 24.5 41.625Z" fill="#323232"/>
</svg>
