<svg width="49" height="49" viewBox="0 0 49 49" fill="none" xmlns="http://www.w3.org/2000/svg">
<path fill-rule="evenodd" clip-rule="evenodd" d="M0 24.5C0 10.969 10.969 0 24.5 0C38.031 0 49 10.969 49 24.5C49 38.031 38.031 49 24.5 49C10.969 49 0 38.031 0 24.5ZM2 24.5C2 36.906 12.093 47 24.5 47C36.906 47 47 36.906 47 24.5C47 12.093 36.906 2 24.5 2C12.093 2 2 12.093 2 24.5Z" fill="#323232"/>
<path fill-rule="evenodd" clip-rule="evenodd" d="M23.907 8.09399C26.681 8.09399 28.938 10.351 28.938 13.125V27.562C30.3329 28.9028 31.1227 30.7532 31.126 32.688C31.126 36.617 27.93 39.813 24.001 39.813C20.072 39.813 16.876 36.617 16.876 32.688C16.8742 30.8488 17.592 29.0819 18.876 27.765V13.125C18.876 10.351 21.133 8.09399 23.907 8.09399ZM24 37.7127C26.7915 37.7127 29.0698 35.479 29.125 32.688C29.1239 31.0175 28.307 29.4528 26.937 28.497V13.125C26.937 11.451 25.58 10.094 23.906 10.094C22.232 10.094 20.875 11.451 20.875 13.125V28.653C19.667 29.59 18.875 31.041 18.875 32.688C18.9301 35.479 21.2084 37.7127 24 37.7127Z" fill="#323232"/>
<path fill-rule="evenodd" clip-rule="evenodd" d="M31 12H37V14H31V12ZM25 29.559V13.188C25 12.6357 24.5523 12.188 24 12.188C23.4477 12.188 23 12.6357 23 13.188V29.559C21.8038 29.9788 21.0023 31.1073 21 32.375C21 34.0319 22.3431 35.375 24 35.375C25.6569 35.375 27 34.0319 27 32.375C26.9977 31.1073 26.1962 29.9788 25 29.559ZM37 16H31V18H37V16ZM31 20H37V22H31V20ZM37 24H31V26H37V24Z" fill="#323232"/>
</svg>
